<svg id="visual" viewBox="0 0 900 450" width="900" height="450" xmlns="http://www.w3.org/2000/svg" xmlns:xlink="http://www.w3.org/1999/xlink" version="1.1"><rect x="0" y="0" width="900" height="450" fill="#ff0066"></rect><path d="M0 197L53 138L106 210L159 142L212 148L265 162L318 209L371 132L424 166L476 195L529 191L582 189L635 220L688 130L741 154L794 202L847 154L900 222L900 0L847 0L794 0L741 0L688 0L635 0L582 0L529 0L476 0L424 0L371 0L318 0L265 0L212 0L159 0L106 0L53 0L0 0Z" fill="#ff8000" stroke-linecap="square" stroke-linejoin="bevel"></path></svg>