<svg id="visual" viewBox="0 0 900 450" width="900" height="450" xmlns="http://www.w3.org/2000/svg" xmlns:xlink="http://www.w3.org/1999/xlink" version="1.1"><rect x="0" y="0" width="900" height="450" fill="#ff0066"></rect><path d="M0 215L16.7 201C33.3 187 66.7 159 100 163.7C133.3 168.3 166.7 205.7 200 214.3C233.3 223 266.7 203 300 189.7C333.3 176.3 366.7 169.7 400 153.7C433.3 137.7 466.7 112.3 500 102.7C533.3 93 566.7 99 600 119C633.3 139 666.7 173 700 189.8C733.3 206.7 766.7 206.3 800 207.8C833.3 209.3 866.7 212.7 883.3 214.3L900 216L900 451L883.3 451C866.7 451 833.3 451 800 451C766.7 451 733.3 451 700 451C666.7 451 633.3 451 600 451C566.7 451 533.3 451 500 451C466.7 451 433.3 451 400 451C366.7 451 333.3 451 300 451C266.7 451 233.3 451 200 451C166.7 451 133.3 451 100 451C66.7 451 33.3 451 16.7 451L0 451Z" fill="#fcaf3c"></path><path d="M0 217L16.7 227.8C33.3 238.7 66.7 260.3 100 255C133.3 249.7 166.7 217.3 200 208.7C233.3 200 266.7 215 300 221.8C333.3 228.7 366.7 227.3 400 220.7C433.3 214 466.7 202 500 207.2C533.3 212.3 566.7 234.7 600 246.2C633.3 257.7 666.7 258.3 700 240.8C733.3 223.3 766.7 187.7 800 181.3C833.3 175 866.7 198 883.3 209.5L900 221L900 451L883.3 451C866.7 451 833.3 451 800 451C766.7 451 733.3 451 700 451C666.7 451 633.3 451 600 451C566.7 451 533.3 451 500 451C466.7 451 433.3 451 400 451C366.7 451 333.3 451 300 451C266.7 451 233.3 451 200 451C166.7 451 133.3 451 100 451C66.7 451 33.3 451 16.7 451L0 451Z" fill="#f89a34"></path><path d="M0 224L16.7 226.5C33.3 229 66.7 234 100 233.3C133.3 232.7 166.7 226.3 200 221.2C233.3 216 266.7 212 300 221.7C333.3 231.3 366.7 254.7 400 253.7C433.3 252.7 466.7 227.3 500 232C533.3 236.7 566.7 271.3 600 285.2C633.3 299 666.7 292 700 292.2C733.3 292.3 766.7 299.7 800 293C833.3 286.3 866.7 265.7 883.3 255.3L900 245L900 451L883.3 451C866.7 451 833.3 451 800 451C766.7 451 733.3 451 700 451C666.7 451 633.3 451 600 451C566.7 451 533.3 451 500 451C466.7 451 433.3 451 400 451C366.7 451 333.3 451 300 451C266.7 451 233.3 451 200 451C166.7 451 133.3 451 100 451C66.7 451 33.3 451 16.7 451L0 451Z" fill="#f4852f"></path><path d="M0 284L16.7 290.2C33.3 296.3 66.7 308.7 100 305C133.3 301.3 166.7 281.7 200 271.8C233.3 262 266.7 262 300 260.2C333.3 258.3 366.7 254.7 400 257.2C433.3 259.7 466.7 268.3 500 283.2C533.3 298 566.7 319 600 321.5C633.3 324 666.7 308 700 299.2C733.3 290.3 766.7 288.7 800 287.7C833.3 286.7 866.7 286.3 883.3 286.2L900 286L900 451L883.3 451C866.7 451 833.3 451 800 451C766.7 451 733.3 451 700 451C666.7 451 633.3 451 600 451C566.7 451 533.3 451 500 451C466.7 451 433.3 451 400 451C366.7 451 333.3 451 300 451C266.7 451 233.3 451 200 451C166.7 451 133.3 451 100 451C66.7 451 33.3 451 16.7 451L0 451Z" fill="#ee6f2e"></path><path d="M0 328L16.7 328.2C33.3 328.3 66.7 328.7 100 332.7C133.3 336.7 166.7 344.3 200 351.7C233.3 359 266.7 366 300 358.5C333.3 351 366.7 329 400 322.7C433.3 316.3 466.7 325.7 500 336.7C533.3 347.7 566.7 360.3 600 366.8C633.3 373.3 666.7 373.7 700 364.7C733.3 355.7 766.7 337.3 800 327.8C833.3 318.3 866.7 317.7 883.3 317.3L900 317L900 451L883.3 451C866.7 451 833.3 451 800 451C766.7 451 733.3 451 700 451C666.7 451 633.3 451 600 451C566.7 451 533.3 451 500 451C466.7 451 433.3 451 400 451C366.7 451 333.3 451 300 451C266.7 451 233.3 451 200 451C166.7 451 133.3 451 100 451C66.7 451 33.3 451 16.7 451L0 451Z" fill="#e6582f"></path><path d="M0 385L16.7 382.3C33.3 379.7 66.7 374.3 100 377.8C133.3 381.3 166.7 393.7 200 400C233.3 406.3 266.7 406.7 300 398.3C333.3 390 366.7 373 400 366.3C433.3 359.7 466.7 363.3 500 366.5C533.3 369.7 566.7 372.3 600 374C633.3 375.7 666.7 376.3 700 381C733.3 385.7 766.7 394.3 800 400.3C833.3 406.3 866.7 409.7 883.3 411.3L900 413L900 451L883.3 451C866.7 451 833.3 451 800 451C766.7 451 733.3 451 700 451C666.7 451 633.3 451 600 451C566.7 451 533.3 451 500 451C466.7 451 433.3 451 400 451C366.7 451 333.3 451 300 451C266.7 451 233.3 451 200 451C166.7 451 133.3 451 100 451C66.7 451 33.3 451 16.7 451L0 451Z" fill="#dd3f31"></path></svg>