<svg id="visual" viewBox="0 0 900 450" width="900" height="450" xmlns="http://www.w3.org/2000/svg" xmlns:xlink="http://www.w3.org/1999/xlink" version="1.1"><rect x="0" y="0" width="900" height="450" fill="#dd3f31"></rect><path d="M0 169L21.5 160.8C43 152.7 86 136.3 128.8 144.3C171.7 152.3 214.3 184.7 257.2 190.5C300 196.3 343 175.7 385.8 155.2C428.7 134.7 471.3 114.3 514.2 127.3C557 140.3 600 186.7 642.8 187.7C685.7 188.7 728.3 144.3 771.2 124.3C814 104.3 857 108.7 878.5 110.8L900 113L900 451L878.5 451C857 451 814 451 771.2 451C728.3 451 685.7 451 642.8 451C600 451 557 451 514.2 451C471.3 451 428.7 451 385.8 451C343 451 300 451 257.2 451C214.3 451 171.7 451 128.8 451C86 451 43 451 21.5 451L0 451Z" fill="#fada0b"></path><path d="M0 294L21.5 278.5C43 263 86 232 128.8 220.3C171.7 208.7 214.3 216.3 257.2 229.3C300 242.3 343 260.7 385.8 247.3C428.7 234 471.3 189 514.2 188.5C557 188 600 232 642.8 246.8C685.7 261.7 728.3 247.3 771.2 230.2C814 213 857 193 878.5 183L900 173L900 451L878.5 451C857 451 814 451 771.2 451C728.3 451 685.7 451 642.8 451C600 451 557 451 514.2 451C471.3 451 428.7 451 385.8 451C343 451 300 451 257.2 451C214.3 451 171.7 451 128.8 451C86 451 43 451 21.5 451L0 451Z" fill="#85c64d"></path><path d="M0 286L21.5 282.5C43 279 86 272 128.8 275.2C171.7 278.3 214.3 291.7 257.2 298.5C300 305.3 343 305.7 385.8 297C428.7 288.3 471.3 270.7 514.2 264.7C557 258.7 600 264.3 642.8 257.2C685.7 250 728.3 230 771.2 222.2C814 214.3 857 218.7 878.5 220.8L900 223L900 451L878.5 451C857 451 814 451 771.2 451C728.3 451 685.7 451 642.8 451C600 451 557 451 514.2 451C471.3 451 428.7 451 385.8 451C343 451 300 451 257.2 451C214.3 451 171.7 451 128.8 451C86 451 43 451 21.5 451L0 451Z" fill="#26a274"></path><path d="M0 308L21.5 298.8C43 289.7 86 271.3 128.8 276.2C171.7 281 214.3 309 257.2 325.8C300 342.7 343 348.3 385.8 337.2C428.7 326 471.3 298 514.2 297.3C557 296.7 600 323.3 642.8 331.7C685.7 340 728.3 330 771.2 324.7C814 319.3 857 318.7 878.5 318.3L900 318L900 451L878.5 451C857 451 814 451 771.2 451C728.3 451 685.7 451 642.8 451C600 451 557 451 514.2 451C471.3 451 428.7 451 385.8 451C343 451 300 451 257.2 451C214.3 451 171.7 451 128.8 451C86 451 43 451 21.5 451L0 451Z" fill="#007979"></path><path d="M0 355L21.5 354.8C43 354.7 86 354.3 128.8 353.2C171.7 352 214.3 350 257.2 354.7C300 359.3 343 370.7 385.8 372.7C428.7 374.7 471.3 367.3 514.2 366.8C557 366.3 600 372.7 642.8 373.8C685.7 375 728.3 371 771.2 366.7C814 362.3 857 357.7 878.5 355.3L900 353L900 451L878.5 451C857 451 814 451 771.2 451C728.3 451 685.7 451 642.8 451C600 451 557 451 514.2 451C471.3 451 428.7 451 385.8 451C343 451 300 451 257.2 451C214.3 451 171.7 451 128.8 451C86 451 43 451 21.5 451L0 451Z" fill="#144e5f"></path><path d="M0 401L21.5 393.8C43 386.7 86 372.3 128.8 374.3C171.7 376.3 214.3 394.7 257.2 401.5C300 408.3 343 403.7 385.8 403.8C428.7 404 471.3 409 514.2 409.2C557 409.3 600 404.7 642.8 397.2C685.7 389.7 728.3 379.3 771.2 374.8C814 370.3 857 371.7 878.5 372.3L900 373L900 451L878.5 451C857 451 814 451 771.2 451C728.3 451 685.7 451 642.8 451C600 451 557 451 514.2 451C471.3 451 428.7 451 385.8 451C343 451 300 451 257.2 451C214.3 451 171.7 451 128.8 451C86 451 43 451 21.5 451L0 451Z" fill="#202731"></path></svg>